<?xml version="1.0" standalone="no"?>
<!DOCTYPE svg PUBLIC "-//W3C//DTD SVG 20010904//EN"
 "http://www.w3.org/TR/2001/REC-SVG-20010904/DTD/svg10.dtd">
<svg version="1.0" xmlns="http://www.w3.org/2000/svg"
 width="700.000000pt" height="700.000000pt" viewBox="0 0 700.000000 700.000000"
 preserveAspectRatio="xMidYMid meet">
<metadata>
Created by potrace 1.14, written by Peter Selinger 2001-2017
</metadata>
<g transform="translate(0.000000,700.000000) scale(0.100000,-0.100000)"
fill="#000000" stroke="none">
<path d="M3815 6563 c-66 -5 -129 -25 -152 -49 -21 -23 -21 -29 -16 -173 5
-121 3 -154 -8 -168 -12 -15 -12 -16 1 -8 13 8 13 7 1 -8 -9 -11 -10 -17 -2
-17 8 0 7 -11 -3 -35 -8 -19 -13 -35 -10 -35 2 0 -2 -13 -10 -29 -9 -16 -12
-31 -9 -35 4 -3 1 -6 -6 -6 -7 0 -9 -4 -6 -10 3 -5 2 -10 -3 -10 -5 0 -9 -6
-9 -12 -1 -11 -79 -220 -113 -303 -7 -16 -15 -39 -17 -50 -2 -11 -8 -24 -13
-29 -6 -6 -10 -18 -10 -28 0 -10 -4 -18 -10 -18 -5 0 -7 -7 -4 -15 4 -8 1 -15
-5 -15 -6 0 -10 -3 -9 -7 1 -5 -4 -24 -11 -43 -8 -19 -15 -38 -16 -42 -1 -5
-4 -10 -5 -13 -1 -3 -3 -8 -5 -12 -1 -5 -5 -17 -9 -28 -5 -11 -10 -27 -14 -35
-3 -8 -4 -18 -4 -22 1 -5 -3 -8 -10 -8 -6 0 -9 -3 -5 -6 3 -3 -5 -31 -18 -62
-20 -50 -35 -86 -40 -102 -1 -3 -7 -18 -14 -35 -10 -26 -36 -94 -71 -190 -6
-16 -11 -31 -11 -33 1 -1 -6 -17 -16 -35 -9 -17 -18 -34 -18 -37 -8 -41 -18
-70 -24 -70 -4 0 -8 -6 -8 -12 -1 -13 -74 -213 -93 -253 -5 -11 -23 -58 -41
-105 -17 -47 -37 -98 -44 -115 -7 -16 -28 -70 -46 -120 -18 -49 -37 -92 -41
-93 -5 -2 -5 -8 -2 -13 3 -6 2 -15 -3 -22 -5 -7 -18 -34 -27 -62 -10 -27 -24
-64 -32 -82 -8 -17 -14 -36 -14 -42 0 -6 -4 -11 -8 -11 -4 0 -8 -8 -9 -17 0
-10 -10 -40 -21 -68 -11 -27 -33 -86 -50 -130 -17 -44 -61 -156 -97 -250 -37
-93 -71 -186 -77 -205 -6 -19 -18 -53 -28 -75 -10 -22 -55 -137 -100 -255 -45
-118 -93 -244 -107 -280 -14 -36 -35 -92 -48 -125 -13 -33 -39 -102 -59 -152
-20 -51 -36 -95 -36 -97 0 -2 -8 -21 -17 -42 -9 -22 -18 -43 -19 -49 -3 -14
-123 -324 -139 -360 -7 -16 -25 -66 -41 -110 -15 -44 -31 -84 -35 -90 -12 -17
-68 -189 -75 -230 -44 -276 74 -541 306 -692 30 -19 68 -44 84 -55 16 -12 25
-15 21 -7 -5 8 1 6 13 -5 11 -10 27 -16 34 -14 7 3 19 -2 25 -11 11 -14 14
-14 23 -1 8 13 10 13 10 -2 0 -10 5 -18 11 -18 5 0 8 4 5 8 -6 11 40 9 50 -1
12 -12 26 -8 18 6 -5 9 -3 9 7 -1 12 -11 12 -14 -1 -23 -11 -7 -8 -8 13 -5 17
3 27 0 27 -7 0 -7 4 -6 10 3 9 13 10 13 10 0 0 -12 2 -13 9 -1 7 11 9 11 14 0
4 -10 6 -10 6 -1 1 6 6 12 12 12 5 0 8 -4 5 -8 -3 -5 1 -9 9 -9 8 0 15 4 15 8
0 11 -30 20 -42 12 -7 -3 -8 -1 -4 6 11 17 39 9 53 -14 8 -12 12 -15 13 -6 0
10 3 11 14 2 9 -8 16 -8 20 -2 4 5 18 8 31 5 14 -2 25 0 25 5 0 6 10 8 22 6
12 -3 26 0 33 5 6 5 23 11 38 14 15 3 43 14 61 25 18 12 36 18 39 14 4 -3 7 2
7 12 0 10 3 15 6 12 11 -10 45 13 38 25 -5 7 -1 9 9 5 10 -4 17 -1 17 5 0 6 2
9 5 6 7 -7 105 87 137 132 14 19 23 42 20 50 -2 8 -1 12 3 8 4 -4 14 0 21 10
19 24 17 31 -6 29 -11 -1 -20 -5 -20 -10 0 -5 8 -6 18 -3 15 5 14 4 -2 -9 -10
-8 -23 -12 -27 -9 -5 3 -6 -3 -3 -13 5 -15 4 -16 -5 -3 -9 12 -10 7 -6 -19 l6
-34 -20 24 c-11 13 -20 19 -21 14 0 -6 4 -15 9 -20 12 -13 -48 -90 -71 -91
-41 -3 -43 -4 -28 -15 12 -9 11 -10 -5 -5 -20 6 -20 6 -1 -9 11 -8 15 -16 8
-16 -7 -1 -17 -2 -23 -3 -5 0 -19 -12 -30 -26 -11 -15 -17 -18 -13 -7 4 10 1
17 -6 17 -6 0 -9 -4 -6 -9 8 -12 -25 -36 -48 -36 -30 0 -29 20 1 35 16 7 32
14 36 14 4 1 11 7 16 14 5 8 12 14 17 15 5 1 8 7 6 12 -2 6 0 7 4 3 4 -4 18 5
30 20 13 15 24 23 24 18 0 -5 18 15 41 45 22 30 45 53 50 51 6 -1 9 3 7 10 -3
17 21 61 39 71 7 5 11 13 7 18 -3 5 0 16 6 24 7 8 9 15 5 15 -4 0 -1 7 6 16 7
9 14 23 16 32 1 9 9 22 18 28 11 8 12 14 5 19 -5 3 -7 12 -3 18 4 7 8 14 8 17
3 20 18 50 26 50 5 0 8 3 8 8 -1 4 0 10 1 15 1 4 4 12 5 17 1 6 3 11 5 13 1 1
3 9 5 17 2 8 8 26 13 40 9 20 11 21 11 6 1 -11 4 -16 9 -12 10 11 9 30 -2 38
-6 4 -5 13 3 22 8 9 10 16 6 16 -4 0 -1 7 6 16 7 9 14 25 16 37 2 11 8 26 14
34 6 7 8 13 4 13 -4 0 -2 7 5 15 7 8 9 15 5 15 -4 0 -2 6 4 13 6 8 8 17 4 21
-4 4 0 4 9 1 13 -5 16 -1 14 19 -2 14 3 37 10 51 7 14 10 25 7 25 -3 0 1 7 8
16 7 9 15 25 16 37 2 12 7 24 12 27 4 3 7 13 5 23 -1 9 2 17 8 17 6 0 8 6 5
14 -3 8 2 20 11 28 11 9 14 10 8 1 -4 -7 -3 -13 3 -13 19 0 21 19 4 29 -11 6
-13 11 -5 11 7 0 10 5 6 12 -5 7 -3 8 6 3 10 -6 12 -4 7 8 -6 16 13 67 25 67
4 0 5 9 3 20 -2 11 0 20 4 20 4 0 8 7 9 15 1 8 3 22 4 30 1 14 10 19 33 16 6
0 11 8 12 20 1 16 -1 18 -11 10 -9 -8 -13 -7 -13 4 0 7 3 14 6 13 19 -2 24 4
11 12 -9 6 -11 10 -3 10 7 0 10 6 7 14 -3 8 3 20 15 27 16 11 18 16 8 28 -10
12 -9 13 2 6 11 -6 13 -4 8 7 -3 9 0 21 6 27 6 6 7 11 3 11 -5 0 -3 6 3 14 7
8 14 27 17 43 3 15 12 31 19 36 8 4 12 14 9 21 -3 8 0 17 5 21 6 3 8 11 5 17
-4 7 -2 8 5 4 8 -5 10 0 7 18 -3 17 1 29 11 34 8 5 14 12 14 15 -1 4 -1 8 0
10 0 1 2 13 5 26 2 14 9 30 15 38 6 7 8 13 4 13 -4 0 -2 7 5 15 7 8 9 15 5 15
-4 0 0 11 9 25 9 14 14 25 10 25 -4 0 -2 6 4 13 5 6 13 26 16 44 4 17 14 37
22 43 7 7 11 17 7 23 -4 6 -1 7 7 2 9 -5 10 -2 6 13 -4 11 -2 23 4 27 6 3 8
11 5 16 -4 5 2 6 12 2 16 -6 16 -5 4 11 -12 14 -12 19 -2 25 7 5 13 12 14 17
1 5 5 8 9 7 13 -5 9 15 -4 20 -10 4 -10 6 0 6 7 1 10 6 6 13 -4 6 -3 8 4 4 6
-3 13 -2 17 4 3 5 1 10 -4 10 -19 0 -12 20 16 46 15 14 20 23 12 21 -8 -2 -11
-2 -6 0 4 3 5 9 2 14 -4 5 2 6 12 2 16 -6 16 -5 4 10 -11 14 -11 20 -1 32 7 8
9 15 5 15 -4 0 -2 7 5 15 7 8 9 15 6 15 -4 0 -1 10 6 23 7 12 11 26 10 30 -1
5 2 6 7 3 5 -4 10 2 10 11 -1 36 18 83 40 101 9 8 10 11 4 7 -7 -3 -13 -1 -13
4 0 6 8 11 18 11 14 0 15 2 2 10 -12 7 -12 10 -1 10 7 0 11 6 8 14 -4 11 -1
13 11 9 14 -5 15 -4 6 8 -11 14 -5 51 9 50 19 -2 21 0 7 9 -9 6 -10 10 -3 10
6 0 10 9 8 20 -2 11 1 20 6 20 6 0 8 4 4 9 -3 5 -1 12 5 16 6 4 8 11 5 16 -4
5 2 6 12 2 16 -6 17 -5 3 12 -9 12 -10 16 -2 11 9 -6 11 -1 8 18 -3 14 2 30
10 37 7 6 11 15 8 20 -3 5 2 12 11 15 13 6 14 8 3 15 -11 7 -11 9 1 9 7 0 11
6 8 14 -3 8 0 20 8 26 8 6 11 18 8 26 -3 9 1 14 12 14 14 0 15 3 6 14 -9 10
-8 16 4 26 8 7 12 17 8 23 -3 5 -1 7 4 4 6 -4 11 4 11 19 0 15 5 30 12 34 6 4
11 10 10 14 -1 4 1 17 5 29 4 12 9 30 11 40 2 10 11 29 20 42 8 13 15 26 15
29 -1 4 0 8 0 11 1 3 3 10 4 15 1 6 3 15 4 21 0 5 5 8 10 4 6 -3 10 3 10 12
-1 29 6 52 18 64 6 6 9 18 6 25 -3 8 1 14 8 14 7 0 10 3 6 6 -3 4 0 19 9 35 8
16 12 29 9 29 -3 0 0 10 7 23 7 12 11 26 10 30 -1 5 3 5 9 1 8 -5 10 -2 6 8
-3 9 0 21 6 27 6 6 7 11 3 11 -5 0 -3 7 4 15 7 8 9 15 5 15 -4 0 -2 7 5 15 7
8 16 12 21 9 5 -3 9 0 9 5 0 6 5 11 11 11 8 0 9 -4 0 -13 -6 -8 -7 -18 -3 -22
4 -5 0 -5 -8 0 -12 7 -13 6 -2 -6 11 -12 14 -12 22 1 5 8 6 18 4 22 -3 4 -1 8
4 8 9 0 25 41 27 68 0 7 5 16 10 20 6 4 10 14 10 22 0 8 5 21 12 28 17 17 17
36 0 29 -7 -3 -21 1 -32 9 -10 8 -13 14 -7 14 7 0 11 6 10 13 -2 6 3 11 10 9
6 -1 12 2 12 8 0 5 -6 10 -12 10 -9 0 -8 4 2 10 8 5 11 10 6 10 -5 0 -3 7 4
15 7 8 9 15 5 15 -4 0 -2 6 4 13 6 8 7 18 3 22 -4 5 -2 5 5 1 6 -3 14 -2 18 4
3 5 1 10 -6 10 -8 0 -8 4 1 15 7 8 9 15 5 15 -5 0 -1 8 7 18 9 9 14 25 13 34
-2 9 3 19 9 21 17 7 43 -10 33 -20 -5 -4 -12 -2 -16 6 -6 10 -10 9 -14 -4 -5
-10 -3 -14 5 -9 7 4 8 3 4 -4 -5 -8 -1 -10 11 -6 14 5 15 4 4 -4 -7 -5 -10
-16 -7 -23 4 -8 1 -7 -6 2 -12 15 -15 15 -28 1 -13 -14 -12 -15 1 -10 9 4 16
1 16 -7 0 -7 -6 -11 -14 -8 -7 3 -13 0 -13 -6 0 -6 5 -10 11 -9 6 2 14 -4 16
-12 4 -12 3 -12 -5 -1 -7 9 -12 10 -16 2 -4 -6 -2 -11 5 -11 6 0 1 -9 -12 -21
-17 -14 -19 -19 -7 -15 12 3 15 1 12 -9 -3 -8 -10 -13 -14 -12 -4 1 -9 -2 -10
-8 -1 -5 -6 -18 -12 -29 -7 -13 -7 -16 1 -12 6 4 11 2 11 -4 0 -7 -6 -10 -13
-7 -8 3 -14 -1 -14 -8 0 -23 35 -4 43 23 4 15 7 30 6 35 -1 4 2 7 8 7 6 0 9 3
9 8 -1 4 0 10 1 15 1 4 3 10 4 15 1 4 7 16 13 27 6 11 11 23 12 28 1 4 2 9 2
12 1 3 3 10 4 15 1 6 3 11 5 13 1 1 3 11 5 21 2 10 9 22 16 26 6 4 8 13 5 19
-4 6 -1 11 6 11 9 0 9 3 -2 10 -14 9 -6 15 15 10 6 -1 7 2 3 6 -4 4 -3 13 3
21 6 7 8 13 4 13 -4 0 -2 7 5 15 7 8 9 15 5 15 -5 0 -1 8 7 18 9 9 14 25 13
34 -2 10 1 20 6 24 5 3 7 10 4 15 -4 5 -1 9 5 9 6 0 8 5 5 10 -3 6 -1 10 5 10
7 0 9 8 5 21 -5 14 -3 19 3 15 6 -3 14 -1 18 6 4 7 4 10 -1 6 -4 -4 -15 -2
-23 5 -13 10 -14 9 -7 -2 6 -10 4 -12 -4 -6 -10 6 -11 3 -1 -15 7 -13 8 -20 2
-16 -6 3 -14 1 -18 -5 -4 -8 -3 -9 4 -5 8 5 10 1 5 -9 -5 -13 -8 -14 -15 -3
-6 9 -8 8 -6 -7 2 -11 -2 -19 -8 -18 -7 1 -10 -10 -9 -27 1 -16 -1 -27 -6 -25
-4 3 -11 0 -15 -6 -5 -8 -2 -10 7 -5 8 4 5 0 -5 -8 -11 -9 -15 -16 -10 -16 6
0 11 -7 11 -15 0 -8 -5 -11 -10 -8 -6 3 -7 1 -3 -5 3 -6 2 -13 -4 -17 -6 -4
-7 -11 -4 -17 5 -7 2 -8 -6 -3 -9 6 -11 4 -5 -5 6 -9 4 -11 -6 -5 -8 5 -6 -1
5 -13 18 -21 18 -21 -4 -17 -25 5 -40 15 -22 15 6 0 9 7 6 15 -4 8 -1 15 4 15
6 0 9 9 7 20 -2 11 1 19 7 17 6 -1 13 4 16 12 3 9 0 11 -8 6 -7 -4 -4 4 5 19
10 14 15 26 11 26 -3 0 3 16 15 36 11 20 18 39 15 42 -3 3 -1 11 4 18 6 6 13
22 15 34 5 26 15 40 15 21 0 -7 5 -9 12 -5 8 5 6 11 -6 19 -14 11 -14 13 -2
18 9 4 13 15 11 27 -5 25 17 36 42 21 15 -9 14 -10 -10 -7 -19 3 -25 1 -20 -7
4 -7 8 -21 8 -31 0 -11 6 -21 13 -24 7 -2 10 2 6 12 -4 10 -1 16 7 16 11 0 11
3 -1 10 -10 7 -11 10 -2 10 7 0 17 12 23 28 5 15 12 34 16 42 3 8 5 21 4 29
-1 8 2 10 10 5 7 -4 10 -3 5 4 -3 6 -2 13 4 17 6 4 8 11 5 16 -4 5 -1 9 6 9 7
0 9 3 6 7 -4 3 -2 12 4 20 6 7 8 13 4 13 -4 0 -2 7 5 15 6 8 9 18 6 24 -3 5
-2 11 3 13 5 1 11 12 13 23 1 11 6 23 11 26 4 3 9 16 12 28 2 13 9 29 15 35 5
7 7 16 3 20 -4 4 -1 11 7 16 13 8 13 10 1 10 -11 0 -10 4 4 13 10 8 15 19 12
24 -4 6 0 16 8 23 8 7 12 16 9 21 -3 5 0 9 7 9 7 0 9 3 6 7 -4 3 -2 12 4 20 6
7 8 13 4 13 -5 0 0 9 10 20 10 11 15 20 11 20 -4 0 9 16 28 36 19 20 34 41 33
48 -1 6 4 10 11 8 8 -1 11 2 7 8 -3 5 -1 20 5 32 11 22 10 22 -4 4 -9 -11 -16
-15 -16 -8 0 6 -7 9 -15 6 -14 -6 -13 -8 2 -20 17 -13 17 -14 -2 -8 -15 4 -16
3 -6 -4 9 -7 10 -12 2 -16 -6 -4 -11 -2 -11 4 0 6 -4 8 -10 5 -5 -3 -10 -11
-10 -16 0 -6 4 -8 9 -4 5 3 13 0 17 -6 5 -8 3 -9 -6 -4 -9 6 -11 4 -5 -5 6 -9
4 -11 -5 -5 -9 5 -11 4 -6 -4 5 -7 2 -10 -6 -9 -7 2 -12 -2 -11 -9 2 -7 -6
-10 -18 -8 -17 4 -19 2 -9 -10 11 -14 7 -19 -12 -16 -5 0 -8 -4 -8 -9 0 -6 5
-10 12 -10 6 0 3 -7 -8 -15 -19 -15 -19 -15 1 -9 16 5 17 4 5 -5 -8 -6 -15
-16 -15 -23 0 -7 -8 -12 -18 -10 -18 3 -20 -20 -4 -45 8 -12 2 -17 -15 -14 -4
0 -5 -8 -3 -19 2 -11 -1 -20 -7 -20 -6 0 -8 -3 -5 -7 4 -3 1 -13 -6 -21 -10
-13 -9 -14 2 -7 10 5 12 4 7 -4 -4 -6 -12 -9 -17 -6 -13 9 -11 -9 4 -24 10
-11 9 -12 -2 -6 -10 6 -12 4 -6 -5 6 -9 4 -11 -5 -5 -9 6 -11 4 -5 -5 5 -8 4
-11 -3 -6 -7 4 -9 -2 -6 -18 2 -14 0 -27 -6 -31 -6 -3 -7 1 -4 9 3 9 1 16 -4
16 -6 0 -9 -9 -7 -21 3 -17 1 -19 -9 -9 -18 14 -14 39 8 55 13 10 14 14 4 18
-9 4 -10 6 -1 6 7 1 10 7 7 15 -3 7 2 21 11 29 9 9 17 20 18 24 1 4 5 7 10 6
4 -2 7 2 7 7 0 6 -6 10 -12 10 -9 0 -9 3 -3 8 6 4 11 14 12 22 2 31 16 60 29
60 7 0 16 4 19 10 3 6 -1 7 -9 4 -18 -7 -22 11 -6 21 6 4 8 11 5 16 -4 5 1 12
9 15 9 3 14 10 11 14 -3 5 2 15 10 24 9 8 16 18 15 21 -1 16 1 16 13 6 8 -6
17 -8 20 -4 4 3 -1 12 -11 20 -13 10 -14 13 -2 11 8 -2 14 2 13 9 -2 6 10 22
25 33 15 12 27 27 27 33 1 7 6 11 13 9 7 -1 17 9 22 23 5 14 15 24 22 23 7 -2
12 3 13 10 0 6 3 11 6 10 8 -4 44 34 44 46 0 6 7 11 15 11 8 0 15 5 15 10 0 6
4 16 8 23 5 6 4 12 0 12 -5 0 -9 10 -10 23 -2 21 -1 21 12 -3 7 -14 11 -28 9
-32 -3 -4 3 -5 12 -1 11 4 13 8 6 11 -7 2 -12 9 -12 17 0 7 -7 18 -15 25 -8 7
-12 16 -9 21 3 5 -2 6 -11 3 -11 -5 -14 -2 -8 12 4 10 2 15 -4 11 -5 -3 -16 4
-22 16 -27 48 -202 175 -351 255 -257 137 -611 252 -830 268 -36 2 -69 6 -75
7 -5 1 -28 1 -50 0z m1095 -1068 c0 -2 -6 -8 -13 -14 -10 -8 -14 -7 -14 2 0 8
6 14 14 14 7 0 13 -1 13 -2z m-106 -248 c3 3 6 1 6 -5 0 -7 -7 -12 -16 -12
-13 0 -14 -3 -4 -15 10 -12 9 -16 -3 -21 -8 -3 -14 -13 -12 -22 1 -9 -4 -24
-12 -33 -7 -9 -13 -20 -12 -25 3 -11 -22 -64 -30 -64 -3 0 -13 5 -21 10 -11 7
-12 10 -2 10 9 0 11 7 7 20 -5 14 -2 20 9 20 9 0 16 -5 16 -11 0 -5 4 -8 10
-4 10 6 3 35 -8 33 -19 -2 -23 4 -12 17 7 8 9 15 5 15 -5 0 0 9 10 20 10 11
15 20 11 20 -4 0 -1 10 6 23 7 12 11 26 10 30 -1 4 6 3 17 -2 10 -6 21 -7 25
-4z m-151 -399 c-6 -7 -9 -21 -8 -30 2 -9 -3 -22 -11 -29 -8 -6 -12 -15 -9
-19 3 -5 1 -11 -4 -14 -11 -7 -9 14 4 34 5 8 10 22 10 30 0 17 13 40 22 40 3
0 1 -6 -4 -12z m-33 -112 c0 -2 -8 -10 -17 -17 -16 -13 -17 -12 -4 4 13 16 21
21 21 13z m-117 -291 c-7 -21 -12 -19 -10 4 0 11 5 18 9 15 4 -3 5 -11 1 -19z
m-48 -65 c4 -6 12 -7 18 -3 7 3 3 -3 -7 -15 -11 -12 -16 -22 -12 -22 4 0 1
-10 -6 -22 -6 -13 -12 -32 -13 -42 -1 -11 -7 -22 -14 -24 -6 -2 -9 -7 -7 -10
2 -4 -7 -8 -20 -8 -27 -2 -26 -2 -18 20 3 9 12 16 20 16 8 0 14 5 14 11 0 5
-6 7 -12 3 -10 -6 -10 -5 -1 8 7 8 9 19 5 23 -4 5 -1 5 7 0 10 -6 12 -2 6 14
-4 12 -2 21 4 21 6 0 10 3 10 8 -5 29 13 44 26 22z m-1435 -3700 c-11 -16 -26
-33 -32 -36 -7 -4 1 9 16 29 34 44 46 50 16 7z m-60 -55 c0 -2 -6 -8 -13 -14
-10 -8 -14 -7 -14 2 0 8 6 14 14 14 7 0 13 -1 13 -2z m-172 -111 c7 4 12 5 12
2 0 -9 -54 -32 -70 -31 -8 1 -22 -4 -30 -11 -9 -7 -24 -11 -35 -10 -11 2 -24
1 -30 -3 -5 -3 -17 -6 -25 -6 -8 0 -20 -4 -27 -8 -6 -4 -14 -3 -18 3 -4 6 -10
8 -14 6 -4 -3 -8 1 -8 8 0 8 11 12 26 11 14 -1 32 3 39 8 10 8 16 7 23 -4 8
-13 13 -6 10 14 -1 5 3 6 9 2 6 -4 17 -1 25 5 8 7 15 9 15 5 0 -4 6 -2 13 4 8
6 17 8 20 4 4 -3 7 0 7 7 0 9 5 7 14 -6 8 -10 18 -16 22 -11 4 4 2 7 -4 7 -7
0 -12 8 -12 17 0 15 1 15 13 -2 8 -10 19 -15 25 -11z m-318 -53 c0 -4 -11 -7
-24 -7 -14 0 -23 3 -21 6 5 9 45 10 45 1z"/>
<path d="M4769 5233 c-1 -5 -1 -11 0 -15 0 -5 -4 -8 -11 -8 -6 0 -8 -3 -5 -7
4 -3 0 -15 -10 -25 -9 -10 -13 -18 -8 -18 4 0 2 -6 -4 -14 -10 -11 -9 -14 3
-12 21 3 31 14 32 37 3 37 4 40 17 33 9 -6 9 -5 0 8 -7 8 -10 18 -6 21 3 4 3
7 0 7 -4 0 -8 -3 -8 -7z m-13 -68 c-1 -8 -5 -17 -8 -21 -5 -4 -4 16 1 34 3 9
9 -1 7 -13z"/>
<path d="M4714 5080 c0 -13 4 -16 10 -10 7 7 7 13 0 20 -6 6 -10 3 -10 -10z"/>
<path d="M4439 4376 c-1 -3 -2 -10 -3 -15 0 -5 -4 -12 -8 -16 -4 -4 -4 -13 -2
-20 3 -7 0 -16 -5 -20 -6 -3 -8 -11 -5 -17 4 -6 -4 -20 -17 -31 l-24 -19 25
15 c14 8 25 21 25 28 1 8 6 24 13 37 7 12 10 22 6 22 -3 0 -1 6 5 14 8 10 9
16 1 21 -5 3 -11 4 -11 1z"/>
<path d="M2705 502 c-4 -4 -12 -7 -17 -7 -6 0 -13 -6 -15 -12 -6 -18 12 -16
26 1 7 8 22 13 33 11 11 -3 18 -1 14 2 -9 10 -33 12 -41 5z"/>
<path d="M2606 472 c-3 -5 1 -9 9 -9 8 0 12 4 9 9 -3 4 -7 8 -9 8 -2 0 -6 -4
-9 -8z"/>
<path d="M2566 458 c3 -5 10 -6 15 -3 13 9 11 12 -6 12 -8 0 -12 -4 -9 -9z"/>
<path d="M5176 5899 c6 -10 -22 -30 -31 -21 -5 4 -5 2 -2 -4 7 -12 -35 -57
-46 -49 -4 3 -5 2 -2 -2 8 -10 -16 -33 -28 -26 -5 3 -7 1 -4 -4 7 -11 -26 -47
-35 -38 -2 3 -5 -2 -5 -10 0 -10 4 -12 12 -5 15 13 25 3 18 -18 -5 -13 -2 -13
14 3 14 13 16 22 9 27 -8 5 -7 8 2 8 6 0 13 -1 15 -2 2 -2 27 21 56 50 57 58
76 102 42 99 -11 0 -18 -4 -15 -8z m20 -13 c-2 -17 -72 -95 -88 -98 -21 -5
-47 -31 -41 -41 4 -6 1 -7 -6 -2 -9 5 9 30 60 81 41 41 74 74 75 74 1 0 1 -6
0 -14z"/>
<path d="M5140 5835 c-24 -25 -42 -45 -39 -45 3 0 25 20 49 45 24 25 42 45 39
45 -3 0 -25 -20 -49 -45z"/>
<path d="M4933 5635 c0 -8 4 -12 9 -9 5 3 6 10 3 15 -9 13 -12 11 -12 -6z"/>
<path d="M4893 5573 c4 -3 1 -13 -6 -22 -11 -14 -10 -14 5 -2 16 12 16 31 1
31 -4 0 -3 -3 0 -7z"/>
<path d="M4859 5488 c-7 -23 -4 -35 7 -35 9 0 11 4 4 12 -5 7 -7 15 -3 18 3 4
3 7 0 7 -4 0 -7 -1 -8 -2z"/>
<path d="M4833 5403 c4 -6 0 -16 -7 -23 -15 -12 -18 -53 -4 -44 5 3 6 10 2 15
-3 6 2 19 11 29 12 14 13 20 4 26 -7 4 -10 3 -6 -3z"/>
<path d="M4785 5300 c-3 -6 1 -7 9 -4 18 7 21 14 7 14 -6 0 -13 -4 -16 -10z"/>
<path d="M4675 4991 c-3 -5 -1 -12 5 -16 6 -4 8 -11 5 -16 -4 -5 2 -9 11 -9
16 0 16 1 1 18 -10 10 -14 22 -10 25 3 4 4 7 0 7 -3 0 -8 -4 -12 -9z"/>
<path d="M4641 4907 c-13 -21 -12 -21 5 -5 10 10 16 20 13 22 -3 3 -11 -5 -18
-17z"/>
<path d="M4489 4513 c-13 -16 -12 -17 4 -4 9 7 17 15 17 17 0 8 -8 3 -21 -13z"/>
<path d="M4369 4205 c-1 -3 -3 -9 -4 -15 -1 -5 -4 -12 -5 -15 -1 -3 -3 -9 -4
-14 0 -5 -4 -13 -8 -17 -11 -10 12 -35 25 -27 6 3 7 1 3 -5 -4 -6 -13 -9 -20
-6 -7 3 -19 -2 -26 -11 -7 -8 -9 -15 -4 -15 5 0 3 -4 -4 -9 -11 -7 -10 -9 3
-14 11 -5 14 -3 9 6 -4 6 -3 8 1 4 12 -11 15 -36 5 -42 -5 -3 -12 0 -16 6 -5
8 -3 9 7 4 12 -7 12 -5 1 6 -11 12 -14 12 -22 -1 -5 -8 -6 -18 -4 -22 3 -4 0
-8 -6 -8 -6 0 -9 -4 -5 -9 3 -5 1 -12 -5 -16 -6 -4 -8 -10 -5 -15 3 -4 -2 -13
-9 -19 -8 -7 -13 -23 -10 -37 3 -18 1 -23 -7 -18 -7 4 -9 3 -6 -4 10 -15 -3
-43 -17 -35 -6 3 -8 3 -4 -2 4 -4 3 -14 -3 -22 -6 -7 -8 -13 -4 -13 4 0 0 -11
-9 -25 -9 -13 -18 -35 -20 -47 -3 -13 -5 -24 -7 -25 -1 -2 -3 -7 -4 -13 -1 -5
-4 -12 -5 -15 -1 -3 -4 -9 -5 -15 -1 -5 -4 -13 -5 -17 -1 -5 -2 -11 -1 -15 0
-5 -5 -8 -11 -8 -9 0 -8 -3 2 -10 12 -7 9 -13 -13 -30 -21 -17 -25 -25 -17
-35 8 -10 7 -16 -7 -24 -10 -6 -14 -11 -9 -11 5 0 2 -7 -5 -16 -7 -9 -13 -27
-14 -41 0 -13 -6 -27 -13 -32 -11 -7 -11 -9 2 -14 9 -4 13 -14 11 -27 -2 -11
0 -20 6 -20 5 0 9 9 9 20 0 30 2 34 19 47 9 6 13 15 9 19 -4 4 -3 13 3 20 13
16 2 37 -13 28 -7 -5 -8 -2 -4 5 5 7 15 10 23 7 8 -3 11 -2 8 3 -3 5 -1 12 5
16 6 4 8 11 5 16 -4 5 -2 9 3 9 6 0 15 14 21 30 5 17 7 30 4 30 -3 0 0 6 6 13
6 8 8 17 4 20 -3 4 -1 7 6 7 7 0 11 6 8 14 -3 8 -1 16 4 18 6 2 11 10 13 18 2
8 8 26 13 40 6 14 8 31 5 39 -4 10 -1 12 8 6 8 -5 11 -4 6 3 -3 6 -2 14 4 17
8 5 8 11 0 20 -8 10 -8 15 1 21 8 4 9 3 5 -4 -4 -7 -2 -12 4 -12 7 0 10 6 7
14 -3 8 1 20 9 27 8 7 13 18 10 26 -3 7 -1 13 4 13 5 0 7 7 4 15 -4 9 0 15 7
15 11 0 11 3 -1 10 -13 8 -12 10 3 10 10 0 17 6 15 12 -3 7 2 19 9 27 8 8 12
22 10 32 -3 11 0 19 6 19 6 0 2 7 -9 15 -17 14 -18 15 0 9 11 -4 22 -1 27 7
13 21 11 32 -5 26 -10 -4 -13 -1 -9 9 3 8 8 12 11 10 3 -3 11 -1 19 5 11 10
10 14 -7 26 -11 8 -18 19 -15 24 4 5 4 9 1 9 -3 0 -7 -2 -7 -5z m20 -48 c0 -9
-2 -8 -6 1 -2 6 -10 9 -15 6 -7 -4 -8 -2 -4 5 9 13 26 5 25 -12z m-63 -152 c1
-7 -5 -16 -13 -19 -8 -3 -12 -10 -8 -15 3 -5 1 -12 -4 -15 -5 -4 -8 -17 -6
-31 1 -14 -5 -30 -14 -37 -14 -12 -14 -11 -2 5 7 9 9 17 3 17 -13 0 -10 24 7
44 7 9 11 16 7 16 -4 0 0 10 9 23 8 13 13 27 10 30 -3 4 -2 5 2 2 4 -3 8 -12
9 -20z m-72 -186 c-9 -11 -14 -22 -11 -26 4 -3 2 -12 -4 -20 -6 -7 -8 -13 -4
-13 4 0 2 -7 -5 -15 -7 -8 -9 -15 -5 -15 5 0 0 -9 -10 -20 -10 -11 -15 -20
-10 -20 4 0 2 -7 -5 -15 -7 -8 -9 -15 -5 -15 4 0 2 -6 -4 -13 -6 -8 -7 -18 -3
-22 4 -5 2 -5 -5 -2 -9 6 -11 34 -3 45 2 1 4 7 5 12 1 6 4 12 5 15 1 3 4 10 5
15 1 6 4 12 5 15 1 3 4 10 5 15 1 6 4 12 5 15 1 3 3 8 4 13 1 4 7 17 14 30 7
12 10 22 6 22 -3 0 -1 7 6 15 7 8 17 12 22 9 5 -3 2 -14 -8 -25z m-87 -237
c-10 -10 -14 -21 -11 -24 3 -3 0 -9 -7 -14 -7 -4 -10 -3 -5 4 3 6 2 14 -4 17
-8 5 -7 11 1 21 6 7 15 11 20 8 5 -3 9 0 9 7 0 7 3 9 7 6 3 -4 -1 -15 -10 -25z
m-37 -87 c-6 -7 -8 -19 -5 -27 4 -9 -1 -18 -10 -22 -9 -3 -13 -11 -9 -17 4 -8
3 -9 -5 -5 -6 4 -8 13 -4 19 4 7 9 23 9 37 2 29 0 27 19 27 10 0 12 -4 5 -12z"/>
<path d="M4063 3408 c-12 -19 -10 -32 7 -46 12 -10 13 -12 0 -10 -8 2 -15 -3
-16 -9 -1 -7 -2 -17 -3 -23 0 -5 -6 -9 -12 -7 -11 2 -18 -16 -22 -60 -2 -12
-11 -31 -20 -41 -13 -14 -15 -22 -7 -27 8 -5 7 -11 -2 -22 -6 -8 -13 -21 -14
-28 -1 -8 -13 -29 -27 -47 -13 -18 -23 -41 -22 -50 2 -10 -2 -18 -8 -18 -8 0
-8 -3 1 -8 9 -6 7 -14 -9 -31 -12 -12 -22 -28 -23 -34 -1 -7 -5 -18 -9 -24 -5
-7 -5 -13 -1 -13 3 0 1 -7 -6 -15 -10 -12 -10 -18 -1 -29 10 -12 6 -21 -19
-47 -20 -22 -27 -36 -20 -43 6 -6 5 -14 -3 -24 -6 -8 -12 -22 -12 -31 0 -9 -6
-15 -13 -13 -8 1 -11 -2 -8 -7 4 -5 2 -13 -4 -16 -8 -5 -8 -11 0 -20 8 -10 6
-17 -11 -28 -11 -9 -18 -20 -15 -26 4 -5 -5 -27 -19 -48 -15 -20 -24 -45 -22
-55 3 -9 -2 -19 -9 -22 -8 -3 -13 -9 -12 -13 1 -4 -3 -18 -10 -30 -7 -13 -10
-23 -6 -23 3 0 1 -7 -6 -15 -7 -8 -9 -15 -5 -15 4 0 2 -7 -5 -16 -18 -20 7
-48 30 -34 11 7 11 10 2 10 -7 0 -10 5 -7 10 4 6 11 7 17 4 7 -4 8 -2 4 5 -4
6 -2 18 4 26 7 8 9 15 5 15 -5 0 0 9 10 20 10 11 13 20 7 20 -7 0 -12 -5 -12
-12 0 -6 -3 -9 -6 -5 -8 7 10 39 22 38 5 -1 9 3 9 8 0 5 3 13 7 17 4 4 2 14
-5 22 -10 13 -9 15 5 9 10 -3 17 -3 16 1 -1 4 3 17 10 30 7 12 10 22 6 22 -3
0 -1 7 6 15 8 9 8 15 2 15 -6 0 -12 -5 -14 -12 -3 -7 -7 -5 -11 6 -5 11 -3 15
5 10 7 -4 8 -3 4 4 -4 8 -2 10 7 6 13 -4 24 9 28 34 0 4 4 12 9 17 4 6 6 18 5
27 -2 9 3 19 11 22 8 3 14 14 14 25 0 11 4 22 10 26 5 3 7 12 3 20 -3 8 0 15
7 15 7 0 9 8 5 21 -5 14 -4 19 4 15 7 -5 8 -1 4 10 -4 12 -3 15 6 10 6 -4 11
-4 10 1 -1 4 0 11 1 16 1 4 3 10 4 15 1 4 7 17 14 30 7 12 9 22 5 22 -4 0 -1
5 7 10 13 9 13 10 0 10 -12 1 -11 4 4 15 10 7 15 18 11 24 -3 6 -3 11 2 11 4
0 13 11 20 25 6 14 7 25 2 25 -5 0 -9 5 -9 11 0 5 4 7 10 4 6 -4 7 1 3 11 -5
13 -3 15 7 9 8 -5 11 -4 6 3 -3 6 -2 13 4 17 6 4 8 11 5 16 -4 5 -1 9 5 9 7 0
10 7 6 15 -3 8 -1 15 4 15 6 0 10 9 10 19 0 11 5 23 10 26 6 4 8 11 5 16 -4 5
-1 9 5 9 7 0 9 8 5 21 -5 13 -3 19 3 15 8 -5 23 26 26 56 1 3 5 10 9 14 4 5
-2 16 -15 26 -20 16 -21 18 -3 12 15 -4 16 -3 6 4 -11 8 -11 10 0 15 9 3 10 6
2 6 -6 1 -15 -5 -20 -11z m11 -81 c-4 -7 -14 -20 -22 -30 -8 -9 -12 -20 -9
-24 4 -3 2 -12 -4 -20 -6 -7 -8 -13 -4 -13 5 0 0 -9 -10 -20 -10 -11 -15 -20
-11 -20 4 0 4 -5 1 -10 -4 -6 -11 -8 -16 -4 -6 4 -3 14 8 26 9 10 19 31 20 46
2 15 4 32 5 39 1 7 5 10 9 7 11 -6 30 31 21 41 -4 5 -1 5 6 1 7 -4 9 -13 6
-19z m-73 -170 c-6 -8 -8 -16 -5 -19 3 -3 1 -9 -4 -12 -6 -3 -9 0 -8 6 2 16
15 38 23 38 3 0 0 -6 -6 -13z m-35 -82 c1 -14 -2 -25 -8 -25 -5 0 -7 -4 -3 -9
3 -5 1 -12 -5 -16 -6 -4 -8 -10 -5 -15 3 -4 -3 -14 -12 -21 -15 -12 -16 -12
-8 1 6 8 10 26 10 40 1 21 20 70 28 70 1 0 3 -11 3 -25z m-46 -115 c-13 -9
-13 -10 0 -10 13 0 13 -1 0 -10 -8 -5 -11 -10 -6 -10 5 0 3 -6 -3 -13 -6 -8
-9 -16 -6 -19 3 -3 -1 -11 -10 -18 -20 -17 -32 -5 -15 15 7 8 9 15 5 15 -4 0
-2 7 5 15 7 8 9 15 5 15 -4 0 -2 7 5 15 7 8 18 15 24 15 6 0 4 -5 -4 -10z
m-55 -150 c-13 -15 -14 -20 -5 -20 10 0 11 -3 3 -11 -6 -6 -16 -8 -23 -4 -8 5
-5 14 11 31 27 29 40 32 14 4z m-18 -63 c0 -8 -6 -14 -14 -14 -9 0 -10 4 -2
14 6 7 12 13 14 13 1 0 2 -6 2 -13z m-22 -54 c-2 -10 -4 -20 -5 -23 -1 -3 -2
-8 -2 -12 1 -3 -6 -12 -16 -20 -15 -12 -16 -11 -4 4 9 12 10 18 2 23 -8 5 -6
13 6 26 21 23 23 24 19 2z m-45 -132 c-5 -10 -17 -21 -26 -25 -13 -5 -14 -9
-5 -20 8 -10 9 -16 1 -21 -6 -3 -8 -10 -6 -14 3 -4 -5 -8 -16 -8 -20 -2 -20
-2 2 14 17 12 19 17 9 24 -11 8 -9 13 9 28 23 20 30 37 10 25 -9 -5 -9 -3 1 9
17 22 34 12 21 -12z m-65 -133 c0 -22 -6 -32 -18 -34 -15 -2 -16 0 -6 12 6 8
8 14 5 14 -4 0 -2 9 4 20 14 27 16 25 15 -12z m-24 -61 c-6 -8 -9 -17 -6 -21
3 -3 -1 -1 -7 4 -10 9 -10 13 2 20 21 13 24 12 11 -3z"/>
<path d="M3654 2332 c3 -6 2 -13 -3 -17 -5 -3 -8 -15 -6 -26 3 -15 0 -19 -10
-15 -10 3 -12 -1 -10 -17 3 -11 -3 -29 -11 -38 -9 -10 -13 -22 -10 -27 3 -5
-1 -15 -9 -22 -7 -6 -11 -19 -8 -27 4 -11 2 -14 -5 -9 -8 4 -10 2 -6 -7 3 -8
-2 -22 -11 -31 -12 -12 -13 -16 -3 -16 10 0 9 -3 -2 -10 -8 -5 -15 -21 -16
-37 -2 -41 -3 -43 -15 -40 -6 1 -14 -4 -16 -10 -3 -7 0 -13 6 -13 6 0 11 -5
11 -11 0 -5 -4 -8 -9 -5 -11 7 -9 -13 2 -31 5 -8 3 -13 -3 -13 -6 0 -9 -4 -6
-9 3 -5 -1 -14 -9 -21 -12 -10 -15 -10 -15 1 -1 8 -7 3 -14 -11 -8 -13 -12
-32 -11 -42 2 -10 -1 -18 -6 -18 -6 0 -8 -4 -4 -9 3 -5 1 -12 -5 -16 -6 -4 -8
-10 -5 -15 3 -4 -2 -11 -11 -14 -10 -4 -13 -13 -9 -25 3 -11 1 -22 -5 -26 -8
-5 -8 -11 0 -20 12 -14 -12 -41 -28 -31 -5 3 -8 -6 -6 -19 1 -14 -2 -25 -7
-25 -5 0 -8 -3 -7 -7 1 -5 -3 -18 -10 -30 -7 -13 -10 -23 -6 -23 4 0 -1 -9
-11 -20 -10 -11 -15 -20 -10 -20 4 0 2 -7 -5 -15 -6 -8 -9 -18 -6 -24 3 -5 0
-12 -6 -14 -10 -4 -10 -6 0 -6 8 -1 10 -6 5 -13 -8 -13 -9 -18 -12 -38 0 -5
-6 -9 -13 -7 -7 1 -13 -4 -14 -10 -1 -7 -3 -15 -4 -18 -1 -3 -3 -8 -4 -12 -1
-5 -5 -13 -9 -20 -4 -6 -4 -19 0 -29 5 -13 3 -15 -7 -9 -8 5 -11 4 -7 -2 4 -6
0 -16 -8 -23 -8 -7 -13 -16 -10 -20 3 -5 1 -12 -5 -15 -7 -4 -8 -11 -1 -18 16
-20 16 -23 2 -40 -7 -9 -18 -14 -24 -10 -6 3 -7 1 -3 -5 4 -7 2 -12 -5 -12 -7
0 -4 -6 7 -14 16 -12 17 -17 6 -28 -11 -11 -12 -10 -6 6 5 13 3 17 -5 15 -7
-3 -13 -9 -13 -14 0 -6 -4 -16 -10 -22 -6 -7 -7 -13 -3 -13 5 0 0 -9 -9 -19
-10 -11 -18 -25 -20 -33 -1 -7 -5 -18 -9 -25 -4 -6 -3 -14 2 -18 6 -3 8 -12 5
-20 -4 -8 -11 -12 -17 -8 -5 3 -7 1 -3 -5 3 -5 0 -13 -6 -15 -10 -4 -10 -6 0
-6 6 -1 12 -6 12 -12 0 -5 -4 -8 -9 -5 -5 3 -14 -1 -21 -9 -7 -8 -9 -15 -5
-15 4 0 2 -7 -5 -15 -6 -8 -9 -19 -6 -24 4 -5 2 -12 -3 -16 -6 -3 -20 -20 -33
-38 -12 -18 -15 -26 -7 -20 9 7 18 10 21 7 3 -3 5 3 5 13 -1 9 3 18 8 18 26 2
52 17 53 30 1 8 3 22 4 30 1 8 5 15 9 15 8 0 19 25 25 60 3 13 10 30 15 37 6
7 8 17 4 23 -3 5 -2 10 3 10 9 0 12 7 21 45 2 6 7 16 13 22 6 7 7 13 4 13 -4
0 -1 10 6 23 7 12 13 25 14 30 1 4 3 9 4 12 1 3 3 9 4 14 0 5 4 12 8 16 4 4 4
14 1 23 -5 11 -3 13 7 7 9 -6 11 -4 5 5 -4 7 -2 16 6 21 11 7 11 9 1 9 -7 0
-10 5 -7 10 4 6 11 8 16 5 5 -4 9 3 9 14 0 11 5 23 11 26 6 4 8 13 5 20 -2 7
-2 16 2 20 4 4 7 10 7 13 1 4 6 17 13 29 6 12 9 29 6 38 -4 10 -2 15 6 13 7
-2 14 6 16 17 3 18 14 45 35 88 6 11 5 17 -2 17 -5 0 -7 5 -4 10 4 6 11 8 16
4 5 -3 9 -2 8 3 -1 4 0 10 1 13 1 3 3 12 5 20 8 37 10 45 18 51 4 3 9 16 12
28 2 13 9 29 15 35 5 7 7 16 3 19 -3 4 0 7 8 7 12 0 12 2 -1 10 -12 8 -12 10
3 16 9 3 17 12 17 19 0 8 5 26 12 42 13 32 19 52 20 71 1 6 5 12 9 12 8 0 21
31 16 40 -1 3 6 18 16 33 9 15 13 27 7 27 -5 0 -10 -5 -10 -11 0 -5 -5 -7 -11
-3 -8 4 -3 12 12 21 13 8 16 12 7 9 -12 -3 -15 -1 -11 9 3 8 9 13 13 10 4 -3
13 2 20 10 7 8 9 15 6 15 -4 0 -2 10 5 21 6 12 7 19 2 16 -5 -3 -9 5 -9 18 0
13 4 21 8 19 5 -3 6 -10 3 -15 -4 -5 -1 -9 4 -9 6 0 12 5 12 10 3 20 4 25 13
39 6 10 5 12 -2 7 -7 -4 -12 -2 -12 3 0 6 7 11 15 11 8 0 15 4 15 10 0 5 -8 7
-17 4 -15 -5 -16 -4 -3 5 12 9 13 13 2 20 -11 7 -11 9 2 14 9 4 15 3 15 -1 -4
-23 3 -24 15 -2 8 16 9 29 3 38 -7 8 -5 12 7 12 9 0 16 5 16 12 0 6 -3 8 -6 5
-4 -3 -16 -2 -27 4 -13 7 -17 7 -13 1z m11 -21 c-3 -5 -1 -12 5 -16 6 -4 8
-11 4 -16 -9 -14 -23 -1 -19 19 5 23 4 22 11 22 3 0 3 -4 -1 -9z m-40 -121 c1
-30 -7 -32 -11 -3 -2 14 3 33 9 33 1 0 2 -13 2 -30z m-30 -97 c-2 -10 -4 -19
-4 -21 -1 -2 -6 0 -11 3 -8 5 -7 11 1 21 15 18 18 18 14 -3z m-39 -110 c-3
-15 -13 -34 -23 -42 -16 -15 -16 -15 -4 2 11 14 11 20 0 34 -10 12 -10 14 -1
9 7 -4 15 -1 18 8 10 25 15 19 10 -11z m-51 -123 c-10 -11 -15 -20 -11 -20 3
0 -1 -15 -11 -32 -9 -18 -18 -40 -18 -48 0 -8 -6 -25 -13 -37 -7 -13 -10 -23
-7 -23 4 0 3 -5 0 -10 -4 -6 -11 -8 -16 -4 -6 4 -6 11 1 19 7 8 9 19 5 26 -4
6 -1 15 6 20 8 4 14 12 14 16 1 4 6 18 13 29 6 12 8 24 5 28 -3 3 0 6 8 6 11
0 11 2 -1 10 -11 7 -11 10 -2 10 7 0 10 5 6 12 -4 6 -3 8 4 4 6 -3 13 -2 17 4
3 5 9 10 12 10 3 0 -2 -9 -12 -20z m-84 -219 c-6 -10 -8 -20 -6 -23 3 -3 -4
-13 -14 -22 -11 -10 -17 -24 -15 -31 3 -7 1 -16 -5 -19 -6 -4 -8 -13 -5 -21 4
-8 0 -17 -9 -20 -8 -4 -13 -16 -12 -29 2 -13 -3 -23 -9 -23 -15 0 -17 27 -3
45 5 6 6 12 2 12 -5 0 -1 8 8 18 10 10 14 22 10 27 -5 4 -2 5 6 0 9 -5 12 -3
9 6 -3 8 4 24 15 37 11 12 15 22 9 22 -7 0 -5 8 5 20 22 25 27 26 14 1z m-93
-244 c-7 -12 -13 -25 -14 -29 -1 -5 -2 -9 -4 -10 -1 -2 -3 -11 -5 -21 -2 -10
-11 -30 -21 -45 -10 -15 -17 -29 -17 -32 1 -3 -5 -12 -13 -21 -10 -11 -11 -18
-3 -26 8 -8 7 -13 -2 -18 -7 -5 -10 -4 -5 3 3 6 2 14 -4 17 -8 5 -7 11 1 21 6
8 8 14 3 14 -4 0 3 11 15 24 13 14 20 30 16 36 -4 6 -1 17 5 25 7 8 9 15 5 15
-4 0 -2 6 4 13 6 8 7 18 3 22 -4 5 -2 5 5 1 14 -8 36 27 25 39 -4 5 -1 5 6 1
9 -6 10 -12 0 -29z m-85 -229 c-4 -7 -8 -16 -9 -20 -1 -5 -2 -11 -3 -14 0 -3
-6 -2 -12 1 -7 5 -4 14 7 26 19 22 29 25 17 7z m-34 -85 c-6 -7 -8 -13 -5 -13
4 0 -1 -12 -12 -27 -10 -16 -17 -33 -15 -40 2 -6 -1 -14 -6 -18 -16 -9 -33 4
-24 18 4 7 8 18 9 25 2 8 10 22 20 33 9 10 14 19 10 19 -4 0 -5 4 -2 8 3 5 12
9 20 9 12 0 13 -4 5 -14z m-53 -139 c-3 -14 -11 -33 -18 -41 -6 -8 -13 -22
-14 -31 -2 -8 -13 -25 -25 -36 -13 -12 -18 -14 -11 -5 7 9 8 20 4 24 -4 5 -2
5 5 1 8 -5 11 2 10 21 -1 19 3 28 13 28 8 0 15 7 16 15 1 18 14 50 20 50 3 0
2 -12 0 -26z"/>
<path d="M3355 1520 c-3 -5 -1 -10 4 -10 6 0 11 5 11 10 0 6 -2 10 -4 10 -3 0
-8 -4 -11 -10z"/>
<path d="M3285 1329 c-4 -6 -5 -12 -2 -15 2 -3 7 2 10 11 7 17 1 20 -8 4z"/>
<path d="M3183 1058 c-15 -20 -25 -38 -20 -38 3 0 12 11 21 25 17 26 16 35 -1
13z"/>
<path d="M3155 1000 c-3 -5 -1 -10 4 -10 6 0 11 5 11 10 0 6 -2 10 -4 10 -3 0
-8 -4 -11 -10z"/>
<path d="M2990 715 c-7 -8 -9 -15 -4 -15 5 0 1 -5 -8 -11 -10 -5 -22 -19 -28
-29 -17 -32 15 -14 45 25 24 33 20 60 -5 30z"/>
<path d="M2874 588 c-19 -23 -19 -23 2 -5 11 9 24 14 29 10 4 -5 5 -2 1 5 -9
16 -10 16 -32 -10z"/>
<path d="M2801 551 c-23 -17 -23 -18 -2 -16 25 2 47 20 34 28 -5 3 -19 -2 -32
-12z"/>
<path d="M2340 458 c0 -6 6 -8 14 -5 8 3 17 2 20 -4 2 -5 3 -4 2 2 -3 15 -36
21 -36 7z"/>
</g>
</svg>
